<mxfile host="app.diagrams.net" modified="2024-01-05T12:11:20.364Z" agent="Mozilla/5.0 (Windows NT 10.0; Win64; x64; rv:121.0) Gecko/20100101 Firefox/121.0" version="22.1.16" etag="9pa1rEYaF34Kqz4_ryTd" type="github">
  <diagram name="Page-1" id="WQgS5-sOm4t826FlvRc5">
    <mxGraphModel>
      <root>
        <mxCell id="0" />
        <mxCell id="1" parent="0" />
      </root>
    </mxGraphModel>
  </diagram>
</mxfile>
